<?xml version="1.0" encoding="UTF-8" standalone="no"?><svg xmlns="http://www.w3.org/2000/svg" xmlns:xlink="http://www.w3.org/1999/xlink" contentStyleType="text/css" height="310px" preserveAspectRatio="none" style="width:887px;height:310px;background:#FFFFFF;" version="1.1" viewBox="0 0 887 310" width="887px" zoomAndPan="magnify"><defs/><g><g id="elem_foobar.go"><ellipse cx="269.3197" cy="154.7671" fill="#F1F1F1" rx="59.3197" ry="14.7671" style="stroke:#181818;stroke-width:0.5;"/><text fill="#000000" font-family="sans-serif" font-size="14" lengthAdjust="spacing" textLength="66" x="233.3197" y="158.5147">foobar.go</text></g><g id="elem_GMN101"><path d="M6,97 L6,212.9297 A0,0 0 0 0 6,212.9297 L175,212.9297 A0,0 0 0 0 175,212.9297 L175,159 L209.77,155 L175,151 L175,107 L165,97 L6,97 A0,0 0 0 0 6,97 " fill="#FEFFDD" style="stroke:#181818;stroke-width:0.5;"/><path d="M165,97 L165,107 L175,107 L165,97 " fill="#FEFFDD" style="stroke:#181818;stroke-width:0.5;"/><text fill="#000000" font-family="sans-serif" font-size="13" lengthAdjust="spacing" textLength="99" x="12" y="114.0669">package foobar</text><text fill="#000000" font-family="sans-serif" font-size="13" lengthAdjust="spacing" textLength="4" x="12" y="129.1997"> </text><text fill="#000000" font-family="sans-serif" font-size="13" lengthAdjust="spacing" textLength="30" x="12" y="144.3325">// coi</text><text fill="#000000" font-family="sans-serif" font-size="13" lengthAdjust="spacing" textLength="148" x="12" y="159.4653">type IFooBar interface{</text><text fill="#000000" font-family="sans-serif" font-size="13" lengthAdjust="spacing" textLength="114" x="44" y="174.5981">Foo()(string,error)</text><text fill="#000000" font-family="sans-serif" font-size="13" lengthAdjust="spacing" textLength="113" x="44" y="189.731">Bar()(string,error)</text><text fill="#000000" font-family="sans-serif" font-size="13" lengthAdjust="spacing" textLength="8" x="12" y="204.8638">}</text></g><g id="elem_foo_bar_impl.go"><ellipse cx="507.2754" cy="155.0551" fill="#F1F1F1" rx="75.7754" ry="17.5551" style="stroke:#181818;stroke-width:0.5;"/><text fill="#000000" font-family="sans-serif" font-size="14" lengthAdjust="spacing" textLength="108" x="450.2754" y="158.8026">foo_bar_impl.go</text></g><g id="elem_GMN105"><path d="M619,6 L619,151 L583.6,155 L619,159 L619,303.5234 A0,0 0 0 0 619,303.5234 L880,303.5234 A0,0 0 0 0 880,303.5234 L880,16 L870,6 L619,6 A0,0 0 0 0 619,6 " fill="#FEFFDD" style="stroke:#181818;stroke-width:0.5;"/><path d="M870,6 L870,16 L880,16 L870,6 " fill="#FEFFDD" style="stroke:#181818;stroke-width:0.5;"/><text fill="#000000" font-family="sans-serif" font-size="13" lengthAdjust="spacing" textLength="99" x="625" y="23.0669">package foobar</text><text fill="#000000" font-family="sans-serif" font-size="13" lengthAdjust="spacing" textLength="4" x="625" y="38.1997"> </text><text fill="#000000" font-family="sans-serif" font-size="13" lengthAdjust="spacing" textLength="186" x="625" y="53.3325">type newFooBarImpl struct{}</text><text fill="#000000" font-family="sans-serif" font-size="13" lengthAdjust="spacing" textLength="4" x="625" y="68.4653"> </text><text fill="#000000" font-family="sans-serif" font-size="13" lengthAdjust="spacing" textLength="201" x="625" y="83.5981">func NewFooBarImpl() FooBar {</text><text fill="#000000" font-family="sans-serif" font-size="13" lengthAdjust="spacing" textLength="121" x="657" y="98.731">return &amp;implzBu{}</text><text fill="#000000" font-family="sans-serif" font-size="13" lengthAdjust="spacing" textLength="8" x="625" y="113.8638">}</text><text fill="#000000" font-family="sans-serif" font-size="13" lengthAdjust="spacing" textLength="4" x="625" y="128.9966"> </text><text fill="#000000" font-family="sans-serif" font-size="13" lengthAdjust="spacing" textLength="184" x="625" y="144.1294">type implzBu newFooBarImpl</text><text fill="#000000" font-family="sans-serif" font-size="13" lengthAdjust="spacing" textLength="4" x="625" y="159.2622"> </text><text fill="#000000" font-family="sans-serif" font-size="13" lengthAdjust="spacing" textLength="240" x="625" y="174.395">func (i *implzBu) Foo() (string,error) {</text><text fill="#000000" font-family="sans-serif" font-size="13" lengthAdjust="spacing" textLength="178" x="657" y="189.5278">// dont forget to implement!</text><text fill="#000000" font-family="sans-serif" font-size="13" lengthAdjust="spacing" textLength="164" x="657" y="204.6606">panic("not implemented")</text><text fill="#000000" font-family="sans-serif" font-size="13" lengthAdjust="spacing" textLength="8" x="625" y="219.7935">}</text><text fill="#000000" font-family="sans-serif" font-size="13" lengthAdjust="spacing" textLength="4" x="625" y="234.9263"> </text><text fill="#000000" font-family="sans-serif" font-size="13" lengthAdjust="spacing" textLength="239" x="625" y="250.0591">func (i *implzBu) Bar() (string,error) {</text><text fill="#000000" font-family="sans-serif" font-size="13" lengthAdjust="spacing" textLength="178" x="657" y="265.1919">// dont forget to implement!</text><text fill="#000000" font-family="sans-serif" font-size="13" lengthAdjust="spacing" textLength="164" x="657" y="280.3247">panic("not implemented")</text><text fill="#000000" font-family="sans-serif" font-size="13" lengthAdjust="spacing" textLength="8" x="625" y="295.4575">}</text></g><!--MD5=[e28e0ebb28fe3ce9b96d11196e628880]
link foobar.go to foo_bar_impl.go--><g id="link_foobar.go_foo_bar_impl.go"><path d="M329.25,155 C358.66,155 394.55,155 426.4,155 " fill="none" id="foobar.go-to-foo_bar_impl.go" style="stroke:#181818;stroke-width:1.0;"/><polygon fill="#181818" points="431.47,155,422.47,151,426.47,155,422.47,159,431.47,155" style="stroke:#181818;stroke-width:1.0;"/><text fill="#000000" font-family="sans-serif" font-size="13" lengthAdjust="spacing" textLength="66" x="347.25" y="148.0669">generated</text></g><!--MD5=[1da2c70411d407306823e9e893957e90]
@startuml
(foobar.go)
note left: package foobar\n\n// coi\ntype IFooBar interface{\n\tFoo()(string,error)\n\tBar()(string,error)\n}
(foo_bar_impl.go)
note right: package foobar\n\ntype newFooBarImpl struct{}\n\nfunc NewFooBarImpl() FooBar {\n\treturn &implzBu{}\n}\n\ntype implzBu newFooBarImpl\n\nfunc (i *implzBu) Foo() (string,error) {\n\t// dont forget to implement!\n\tpanic("not implemented")\n}\n\nfunc (i *implzBu) Bar() (string,error) {\n\t// dont forget to implement!\n\tpanic("not implemented")\n}
(foobar.go)->(foo_bar_impl.go): generated
@enduml

PlantUML version 1.2022.7(Mon Aug 22 17:01:30 UTC 2022)
(GPL source distribution)
Java Runtime: OpenJDK Runtime Environment
JVM: OpenJDK 64-Bit Server VM
Default Encoding: UTF-8
Language: en
Country: null
--></g></svg>